<!DOCTYPE svg PUBLIC "-//W3C//DTD SVG 1.1//EN" "http://www.w3.org/Graphics/SVG/1.1/DTD/svg11.dtd"><svg xmlns="http://www.w3.org/2000/svg" version="1.1" style="shape-rendering:geometricPrecision; text-rendering:geometricPrecision; image-rendering:optimizeQuality; fill-rule:evenodd; clip-rule:evenodd" xmlns:xlink="http://www.w3.org/1999/xlink" viewBox="7.3 10.3 126.5 24.3" width="126.5" height="24.3"><g><path fill="#cd712d" fill-opacity="0.671" d="M 54,16.7 c -1.22,0.22 -0.4,-3.42 -1.03,-4.1 c -0.93,-0.92 -2.13,-0.07 -3.28,-0.3 c 0.13,-1.77 2.46,-1.48 3.61,-1.1 c 0.98,0.96 0.23,4.08 0.7,5.5 Z"/></g><g><path fill="#e17e31" fill-opacity="0.796" d="M 50,30.98 c 0.55,0.2 0.83,0.6 0.85,1.18 c -0.41,-0.3 -0.69,-0.69 -0.85,-1.18 Z M 50.85,32.16 c 0.69,-0.08 1.05,0.22 1.08,0.9 c -0.54,-0.09 -0.9,-0.39 -1.08,-0.9 Z M 51.93,33.06 c 2.36,0.22 4.72,0.21 7.09,-0.04 c -0.4,1.26 -2.49,0.86 -3.46,0.96 c -1.34,0.16 -2.55,-0.14 -3.63,-0.92 Z"/></g><g><path fill="#ba6c39" fill-opacity="0.878" d="M 61.86,18.86 c 0.29,1.84 0.23,3.66 -0.19,5.48 c -0.76,-1.53 -0.94,-3.14 -0.55,-4.83 c 0.11,-0.39 0.35,-0.6 0.74,-0.65 Z"/></g><g><path fill="#e68827" fill-opacity="0.518" d="M 107.44,16.75 c -1.56,0.27 -3.11,0.26 -4.67,-0.04 c 0.84,-1.24 3.6,-0.95 4.67,0.04 Z"/></g><g><path fill="#be6522" fill-opacity="0.153" d="M 79.1,19.89 c -0.13,1.05 -0.11,2.09 0.06,3.14 c -1.66,-0.19 -1.88,-3.07 -0.06,-3.14 Z"/></g><g><path fill="#ad6f36" fill-opacity="0.141" d="M 46.05,17.29 c -0.03,0.87 0.01,1.74 0.13,2.61 c -1.86,0.28 -1.62,-2.83 -0.13,-2.61 Z"/></g><g><path fill="#e2782b" fill-opacity="0.635" d="M 73.21,32.95 c -0.11,1.42 -2.46,0.88 -3.34,0.71 c 1.04,-0.57 2.15,-0.81 3.34,-0.71 Z"/></g><g><path fill="#d77d44" fill-opacity="0.624" d="M 62.94,31.8 c 0.65,0.08 1.12,0.41 1.41,1 c -0.79,0.11 -1.26,-0.22 -1.41,-1 Z M 64.35,32.8 c 0.66,0.14 1.22,0.44 1.7,0.9 c -0.73,0.29 -2.26,0.39 -1.7,-0.9 Z"/></g><g><path fill="#cd7b3f" fill-opacity="0.569" d="M 28.86,29.76 c 0.55,0.27 1.01,0.64 1.4,1.11 c -0.74,-0.03 -1.21,-0.4 -1.4,-1.11 Z M 30.26,30.87 c 0.32,0.29 0.64,0.59 0.96,0.89 c -0.76,0.16 -1.08,-0.14 -0.96,-0.89 Z M 31.22,31.76 c 0.4,0.4 0.72,0.87 0.95,1.4 c -0.75,-0.17 -1.07,-0.63 -0.95,-1.4 Z"/></g><g><path fill="#b57447" fill-opacity="0.604" d="M 43.72,28.97 c 1.39,-0.05 1.94,2.22 -0.04,1.85 c 0.17,-0.61 0.18,-1.23 0.04,-1.85 Z M 43.68,30.82 c 0.16,0.75 -0.14,1.16 -0.92,1.22 c 0.31,-0.4 0.62,-0.81 0.92,-1.22 Z"/></g><g><path fill="#a66b34" fill-opacity="0.686" d="M 76.15,26.92 c 0.67,0.3 0.95,0.83 0.85,1.6 c 0.1,0.81 -0.19,1.38 -0.87,1.71 c -0.14,-1.1 -0.13,-2.21 0.02,-3.31 Z"/></g><g><path fill="#dd7331" fill-opacity="0.573" d="M 75.82,30.97 c -0.05,0.48 -0.2,0.92 -0.44,1.34 c -0.17,-0.57 -0.02,-1.01 0.44,-1.34 Z M 75.38,32.31 c -0.48,0.41 -1.05,0.64 -1.71,0.68 c 0.43,-0.56 1,-0.79 1.71,-0.68 Z"/></g><g><path fill="#ac6a34" fill-opacity="0.184" d="M 46.18,19.9 c 0.62,0.03 1.24,0.07 1.86,0.11 c -0.01,1.05 -1.93,1.35 -1.86,-0.11 Z"/></g><g><path fill="#d58a4f" fill-opacity="0.624" d="M 101.22,17.18 c -0.27,0.51 -0.7,0.82 -1.28,0.92 c 0.12,-0.71 0.55,-1.01 1.28,-0.92 Z"/></g><g><path fill="#e48234" fill-opacity="0.478" d="M 81.64,33.25 c 0.69,-0.03 1.26,0.22 1.7,0.74 c -0.68,-0.01 -1.24,-0.26 -1.7,-0.74 Z"/></g><g><path fill="#d57b46" fill-opacity="0.357" d="M 123.07,19.91 c -0.13,0.73 -0.56,1.14 -1.29,1.25 c 0.18,-0.68 0.6,-1.1 1.29,-1.25 Z"/></g><g><path fill="#c46c2f" fill-opacity="0.557" d="M 132.04,20.03 c 0.65,0.09 0.87,0.45 0.68,1.11 c -0.39,-0.27 -0.62,-0.63 -0.68,-1.11 Z"/></g><g><path fill="#cc6f33" fill-opacity="0.533" d="M 35.24,16.22 c -0.41,0.48 -0.94,0.66 -1.58,0.54 c 0.46,-0.35 0.99,-0.53 1.58,-0.54 Z"/></g><g><path fill="#a86023" fill-opacity="0.459" d="M 74.7,25 c 0.61,0.11 1.06,0.45 1.33,1 c -0.55,-0.19 -0.99,-0.52 -1.33,-1 Z"/></g><g><path fill="#a26039" fill-opacity="0.353" d="M 82.04,25.9 c 0.44,0.18 0.82,0.45 1.14,0.8 c -0.66,0.13 -1.04,-0.14 -1.14,-0.8 Z"/></g><g><path fill="#b55e2d" fill-opacity="0.447" d="M 21.87,26.84 c -0.07,0.62 -0.35,1.11 -0.84,1.49 c 0.07,-0.62 0.35,-1.12 0.84,-1.49 Z"/></g><g><path fill="#be743c" fill-opacity="0.431" d="M 71.07,19.98 c 0.5,0.23 0.85,0.6 1.06,1.11 c -0.53,-0.2 -0.88,-0.57 -1.06,-1.11 Z"/></g><g><path fill="#c9844a" fill-opacity="0.537" d="M 64.31,17.3 c -0.38,0.38 -0.84,0.64 -1.36,0.8 c 0.17,-0.72 0.62,-0.99 1.36,-0.8 Z"/></g><g><path fill="#bc733b" fill-opacity="0.357" d="M 30.3,18.85 c -0.34,0.56 -0.76,1.04 -1.28,1.45 c 0.16,-0.72 0.58,-1.21 1.28,-1.45 Z"/></g><g><path fill="#cc7d42" fill-opacity="0.408" d="M 130.69,17.88 c 0.71,0.26 1.19,0.74 1.44,1.45 c -0.58,-0.38 -1.06,-0.86 -1.44,-1.45 Z"/></g><g><path fill="#d26e22" fill-opacity="0.757" d="M 24.11,31.1 c -0.25,0.45 -0.6,0.78 -1.06,0.99 c 0.11,-0.58 0.47,-0.91 1.06,-0.99 Z"/></g><g><path fill="#d3834a" fill-opacity="0.62" d="M 82.14,17.14 c -0.23,0.52 -0.62,0.83 -1.19,0.94 c 0.12,-0.67 0.51,-0.98 1.19,-0.94 Z"/></g><g><path fill="#cc7629" fill-opacity="0.839" d="M 58.07,30.74 c 0.47,0.31 0.78,0.74 0.92,1.29 c -0.57,-0.24 -0.88,-0.67 -0.92,-1.29 Z"/></g><g><path fill="#d58a4c" fill-opacity="0.616" d="M 108.8,17.28 c 0.62,-0.05 1.16,0.12 1.64,0.5 c -0.61,0.01 -1.15,-0.16 -1.64,-0.5 Z"/></g><g><path fill="#ba7e58" fill-opacity="0.263" d="M 90.74,17.28 c 0.75,-0.11 1.14,0.21 1.19,0.95 c -0.41,-0.3 -0.8,-0.62 -1.19,-0.95 Z"/></g><g><path fill="#ae7047" fill-opacity="0.42" d="M 40.84,17.23 c 0.72,-0.08 1.12,0.24 1.22,0.94 c -0.48,-0.22 -0.89,-0.53 -1.22,-0.94 Z"/></g><g><path fill="#f1690b" fill-opacity="0.984" d="M 35.24,16.22 c 1.94,-0.1 3.81,0.23 5.6,1.01 c 0.33,0.41 0.74,0.72 1.22,0.94 c 2.45,1.77 3.45,4.15 3,7.15 c -1.35,1.37 -13.53,0.28 -12.86,2 c 1.53,3.27 3.95,4.16 7.27,2.67 c 1.16,-0.41 3.33,-3.09 4.25,-1.02 c 0.14,0.62 0.13,1.24 -0.04,1.85 c -0.3,0.41 -0.61,0.82 -0.92,1.22 c -0.72,0.7 -1.59,1.13 -2.59,1.29 c -0.97,-0.36 -1.7,-0.13 -2.21,0.71 c -0.6,-0.06 -1.19,-0.19 -1.76,-0.39 c -1.04,-0.54 -2.14,-0.68 -3.28,-0.41 c -0.25,-0.03 -0.5,-0.06 -0.75,-0.08 c -0.23,-0.53 -0.55,-1 -0.95,-1.4 c -0.32,-0.3 -0.64,-0.6 -0.96,-0.89 c -0.39,-0.47 -0.85,-0.84 -1.4,-1.11 c -1.22,-3.17 -1.17,-6.33 0.16,-9.46 c 0.52,-0.41 0.94,-0.89 1.28,-1.45 c 0.9,-1.05 2.02,-1.75 3.36,-2.09 c 0.64,0.12 1.17,-0.06 1.58,-0.54 Z M 72.79,17.13 c 0.15,0.55 0.48,0.94 0.99,1.19 c 0.31,0.29 0.63,0.57 0.94,0.86 c 0.33,0.33 0.67,0.65 1.02,0.96 c 0.47,0.77 0.37,1.42 -0.31,1.96 c -1.36,0.4 -2.46,0.06 -3.3,-1.01 c -0.21,-0.51 -0.56,-0.88 -1.06,-1.11 c -1.74,-0.37 -6.93,-0.97 -5.87,2.31 c 1.13,0.48 2.3,0.92 3.5,1.32 c 2.12,-0.01 4.12,0.46 6,1.39 c 0.34,0.48 0.78,0.81 1.33,1 c 0.04,0.31 0.08,0.62 0.12,0.92 c -0.15,1.1 -0.16,2.21 -0.02,3.31 c -0.1,0.25 -0.2,0.49 -0.31,0.74 c -0.46,0.33 -0.61,0.77 -0.44,1.34 c -0.71,-0.11 -1.28,0.12 -1.71,0.68 c -0.15,-0.02 -0.31,-0.03 -0.46,-0.04 c -1.19,-0.1 -2.3,0.14 -3.34,0.71 c -1.27,0.38 -2.54,0.4 -3.82,0.04 c -0.48,-0.46 -1.04,-0.76 -1.7,-0.9 c -0.29,-0.59 -0.76,-0.92 -1.41,-1 c -1.64,0.15 -1.88,-1.6 -2.28,-2.79 c 1.35,-0.26 2.66,-0.16 3.95,0.3 c 1.89,2.11 9.81,2.1 7.56,-1.16 c -1.53,-2.52 -7.6,0.12 -10.5,-3.81 c 0.42,-1.82 0.48,-3.64 0.19,-5.48 c 0.31,-0.33 0.68,-0.58 1.09,-0.76 c 0.52,-0.16 0.98,-0.42 1.36,-0.8 c 2.8,-1.35 5.62,-1.41 8.48,-0.17 Z M 90.74,17.28 c 0.39,0.33 0.78,0.65 1.19,0.95 c 2.55,1.37 2.7,5.01 -0.88,4.29 c -2.34,-2.36 -3.63,-3.69 -7.41,-2.4 c -1.01,0.92 -1,1.82 0.03,2.7 c 2.9,1.27 7.16,0.46 9.43,2.53 c 4.69,6.92 -4.67,9.4 -9.76,8.64 c -0.44,-0.52 -1.01,-0.77 -1.7,-0.74 c -0.82,-0.52 -4.67,-3.95 -2.89,-4.88 c 3.04,-0.78 3.19,0.31 5.28,1.92 c 2.13,1.08 8.34,0.42 5.16,-2.94 c -1.98,-0.39 -3.98,-0.6 -6.01,-0.65 c -0.32,-0.35 -0.7,-0.62 -1.14,-0.8 c -1.84,-0.11 -2.8,-1.06 -2.88,-2.87 c -0.17,-1.05 -0.19,-2.09 -0.06,-3.14 c 0.17,-1.05 0.79,-1.65 1.85,-1.81 c 0.57,-0.11 0.96,-0.42 1.19,-0.94 c 2.89,-1.2 5.76,-1.15 8.6,0.14 Z M 33.63,20.68 c -0.31,0.43 -1.74,1.54 -0.84,2.03 c 2.14,0.47 4.27,0.46 6.39,-0.05 c 0.3,0.02 0.59,0.03 0.89,0.05 c 0.72,-0.16 0.76,-0.43 0.1,-0.81 c -0.98,-2.6 -4.58,-2.75 -6.54,-1.22 Z"/></g><g><path fill="#e47f3b" fill-opacity="0.682" d="M 40.17,33.33 c -0.66,0.46 -1.4,0.69 -2.21,0.71 c 0.51,-0.84 1.24,-1.07 2.21,-0.71 Z"/></g><g><path fill="#e57927" fill-opacity="0.702" d="M 32.92,33.24 c 1.14,-0.27 2.24,-0.13 3.28,0.41 c -0.71,0.18 -3.17,0.76 -3.28,-0.41 Z"/></g><g><path fill="#be6a28" fill-opacity="0.663" d="M 64.61,29.31 c -1.29,-0.46 -2.6,-0.56 -3.95,-0.3 c 0.22,-1.55 4.87,-1.49 3.95,0.3 Z"/></g><g><path fill="#c94500" fill-opacity="0.204" d="M 40.17,21.9 c 0.66,0.38 0.62,0.65 -0.1,0.81 c 0.03,-0.27 0.06,-0.54 0.1,-0.81 Z"/></g><g><path fill="#a2490b" fill-opacity="0.137" d="M 33.63,20.68 c 0.16,0.51 0.47,0.9 0.94,1.17 c 1.57,0.09 3.11,0.36 4.61,0.81 c -2.12,0.51 -4.25,0.52 -6.39,0.05 c -0.9,-0.49 0.53,-1.6 0.84,-2.03 Z"/></g><g><path fill="#d17f3d" fill-opacity="0.608" d="M 72.79,17.13 c 0.81,-0.02 1.14,0.38 0.99,1.19 c -0.51,-0.25 -0.84,-0.64 -0.99,-1.19 Z M 73.78,18.32 c 0.73,-0.14 1.05,0.15 0.94,0.86 c -0.31,-0.29 -0.63,-0.57 -0.94,-0.86 Z M 74.72,19.18 c 0.7,-0.06 1.04,0.27 1.02,0.96 c -0.35,-0.31 -0.69,-0.63 -1.02,-0.96 Z"/></g><g><path fill="#f36a0a" fill-opacity="0.984" d="M 101.22,17.18 c 0.52,-0.16 1.03,-0.32 1.55,-0.47 c 1.56,0.3 3.11,0.31 4.67,0.04 c 0.45,0.18 0.9,0.36 1.36,0.53 c 0.49,0.34 1.03,0.51 1.64,0.5 c 1.5,1.18 2.58,2.67 3.23,4.45 c 0.67,1.97 0.67,3.94 0.01,5.9 c -4.13,11.09 -22.67,5.19 -16.47,-7.48 c 0.59,-1.23 1.5,-2.07 2.73,-2.55 c 0.58,-0.1 1.01,-0.41 1.28,-0.92 Z M 130.69,17.88 c 0.38,0.59 0.86,1.07 1.44,1.45 c -0.03,0.23 -0.06,0.47 -0.09,0.7 c 0.06,0.48 0.29,0.84 0.68,1.11 c 0.26,3.34 1.27,8.68 0.01,11.77 c -1.15,0.11 -2.3,0.06 -3.45,-0.12 c -0.08,-3.1 -0.09,-6.19 -0.04,-9.28 c -0.21,-3.88 -3.04,-3.9 -6.17,-3.6 c -0.69,0.15 -1.11,0.57 -1.29,1.25 c -4.1,2.18 0.28,12.07 -3.24,12.12 c -3.11,0.38 -2.31,-2.31 -2.43,-4.32 c -0.05,-2.98 -0.05,-5.97 -0.02,-8.96 c -0.44,-2.71 0.66,-3.68 3.29,-2.91 c 0.41,0.46 0.81,0.91 1.21,1.35 c 2.61,-2.19 7.28,-2.47 10.1,-0.56 Z M 100.65,29 c 0.35,0.49 0.78,0.89 1.29,1.2 c 11.07,2.73 9.95,-11.41 2.55,-10.6 c -5.17,0.45 -5.36,5.51 -3.84,9.4 Z"/></g><g><path fill="#d1773c" fill-opacity="0.369" d="M 100.65,29 c 0.67,0.15 1.1,0.55 1.29,1.2 c -0.51,-0.31 -0.94,-0.71 -1.29,-1.2 Z"/></g><g><path fill="#cf783a" fill-opacity="0.439" d="M 129.28,32.79 c 1.15,0.18 2.3,0.23 3.45,0.12 c 0.58,1.91 -3.64,1.41 -3.45,-0.12 Z"/></g><g><path fill="#f66906" fill-opacity="0.988" d="M 9.96,12.06 c 0.09,0.42 0.3,0.77 0.63,1.05 c 0.06,1.1 0.34,2.13 0.86,3.08 c -0.91,2.01 0.61,3.94 0.85,5.95 c -2.95,6.6 4.1,12.21 8.73,6.19 c 0.49,-0.38 0.77,-0.87 0.84,-1.49 c 0.46,-2.11 0.07,-4.04 -1.17,-5.77 c 0.1,-1.77 1,-2.59 2.71,-2.47 c 3.11,3.99 3.35,8.16 0.7,12.5 c -0.59,0.08 -0.95,0.41 -1.06,0.99 c -2.9,1.48 -6.7,3.09 -9.68,0.95 c -0.78,-0.22 -1.5,-0.13 -2.18,0.29 c -1.08,-0.23 -2.16,-0.41 -3.26,-0.52 c 0.83,-4.36 -1.01,-12.88 0.85,-16.48 c 0.53,-0.85 -0.51,-4.7 1.18,-4.27 Z"/></g><g><path fill="#e48737" fill-opacity="0.357" d="M 7.93,32.81 c 1.1,0.11 2.18,0.29 3.26,0.52 c -0.93,0.97 -2.89,1.07 -3.26,-0.52 Z"/></g><g><path fill="#ea6712" fill-opacity="0.965" d="M 23.41,18.6 c -1.71,-0.12 -2.61,0.7 -2.71,2.47 c -3.17,-2.48 -5.97,-2.12 -8.4,1.07 c -0.24,-2.01 -1.76,-3.94 -0.85,-5.95 c 4.15,0.81 8.66,-1.34 11.96,2.41 Z"/></g><g><path fill="#f96804" d="M 49.69,12.3 c 1.15,0.23 2.35,-0.62 3.28,0.3 c 0.63,0.68 -0.19,4.32 1.03,4.1 c 1.19,0.23 2.38,0.29 3.59,0.18 c 0.38,1.05 0.44,2.11 0.16,3.19 c -1.09,0.33 -3.84,-0.59 -4.32,0.71 c 0.02,2.24 0.03,4.48 0.03,6.72 c -0.28,3.35 1.83,3.46 4.61,3.24 c 0.04,0.62 0.35,1.05 0.92,1.29 c 0.01,0.33 0.02,0.66 0.03,0.99 c -2.37,0.25 -4.73,0.26 -7.09,0.04 c -0.03,-0.68 -0.39,-0.98 -1.08,-0.9 c -0.02,-0.58 -0.3,-0.98 -0.85,-1.18 c -0.09,-3.15 -0.13,-6.31 -0.13,-9.46 c -0.14,-1.05 -0.75,-1.56 -1.83,-1.51 c -0.62,-0.04 -1.24,-0.08 -1.86,-0.11 c -0.12,-0.87 -0.16,-1.74 -0.13,-2.61 c 3.85,-0.44 4.51,-0.88 3.64,-4.99 Z"/></g><g><path fill="#aa6a40" fill-opacity="0.447" d="M 57.59,16.88 c 1.99,0.41 1.87,3 0.16,3.19 c 0.28,-1.08 0.22,-2.14 -0.16,-3.19 Z"/></g><g><path fill="#a73e04" fill-opacity="0.063" d="M 116.09,20 c -0.03,2.99 -0.03,5.98 0.02,8.96 c -0.78,-0.36 -1.59,-0.63 -2.43,-0.83 c 0.66,-1.96 0.66,-3.93 -0.01,-5.9 c 1.62,0.21 1.37,-1.55 2.42,-2.23 Z"/></g><g><path fill="#5b0000" fill-opacity="0.604" d="M 9.96,12.06 c 0.53,0.15 0.74,0.5 0.63,1.05 c -0.33,-0.28 -0.54,-0.63 -0.63,-1.05 Z"/></g></svg>