<!DOCTYPE svg PUBLIC "-//W3C//DTD SVG 1.1//EN" "http://www.w3.org/Graphics/SVG/1.1/DTD/svg11.dtd"><svg xmlns="http://www.w3.org/2000/svg" version="1.1" style="shape-rendering:geometricPrecision; text-rendering:geometricPrecision; image-rendering:optimizeQuality; fill-rule:evenodd; clip-rule:evenodd" xmlns:xlink="http://www.w3.org/1999/xlink" viewBox="4.5 10.2 213.9 37.3" width="213.9" height="37.3"><g><path fill="#ecf2f2" fill-opacity="0.224" d="M 159.06,17.29 c -0.08,7.46 -0.08,14.92 0.01,22.38 c -0.67,-0.08 -1,-0.47 -0.98,-1.17 c -0.07,-6.67 -0.09,-13.35 -0.05,-20.02 c -0.04,-0.75 0.3,-1.15 1.02,-1.19 Z"/></g><g><path fill="#edf0f0" fill-opacity="0.165" d="M 184.93,17.34 c 0.7,0.03 1.05,0.41 1.05,1.15 c 0.09,6.66 0.06,13.33 -0.08,20 c 0,0.7 -0.33,1.08 -0.99,1.15 c 0.15,-7.44 0.15,-14.87 0.02,-22.3 Z"/></g><g><path fill="#ccccd2" fill-opacity="0.157" d="M 166.62,19.39 c 0.69,-0.06 1.04,0.25 1.05,0.93 c -0.35,-0.3 -0.7,-0.61 -1.05,-0.93 Z"/></g><g><path fill="#ccccd3" fill-opacity="0.137" d="M 166.39,27.61 c 0.28,0.25 0.56,0.51 0.83,0.76 c -0.63,0.16 -0.91,-0.1 -0.83,-0.76 Z"/></g><g><path fill="#4c8ab5" fill-opacity="0.529" d="M 41.37,30.87 c -0.24,0.63 -0.65,1.1 -1.24,1.42 c 0.17,-0.69 0.58,-1.17 1.24,-1.42 Z"/></g><g><path fill="#d8d8e0" fill-opacity="0.129" d="M 102.27,32.72 c -0.33,0.18 -0.66,0.36 -0.99,0.53 c 0.05,-0.65 0.38,-0.83 0.99,-0.53 Z"/></g><g><path fill="#f9fbf9" fill-opacity="0.988" d="M 69.78,36 c 0.43,2.17 -1.6,2.87 -3.02,3.84 c -9.43,1.48 -21.24,1.68 -22.92,-10.29 c -0.38,-18.41 26.76,-13.68 26.14,-9.18 c -0.57,1.09 -1.78,3.32 -3.27,3.02 c -5.05,-2.22 -16.81,-3.28 -16.64,5.11 c -0.26,6.46 6.67,6.83 11.43,6.51 c 2.03,-0.19 3.98,-0.66 5.85,-1.42 c 0.95,0.64 1.76,1.45 2.43,2.41 Z M 69.93,40.15 c 0.79,-1.35 1.38,-2.78 1.77,-4.29 c 3.36,-5.92 6.64,-11.9 9.82,-17.92 c 0.89,-1.46 5.94,-1.56 6.84,0.08 c 2.41,5.02 8.36,14.48 9.93,19.05 c 0.62,0.96 2.77,2.71 0.24,2.97 c -6.97,0.62 -3.81,-2.08 -7.96,-4.44 c -2.62,-0.2 -9.9,-0.56 -12.02,0.39 c -0.92,1.42 -1.95,2.72 -3.11,3.89 c -1.83,0.16 -3.67,0.25 -5.51,0.27 Z M 111.24,22.38 c -1.78,-0.79 -3.52,-0.72 -5.22,0.2 c -0.08,0 -0.16,0.01 -0.23,0.01 c -2.96,6.22 18.48,-2.03 18.32,11.85 c -3.63,7.61 -9.29,5.75 -16.57,5.83 c -2.87,-0.08 -5.41,-1.03 -7.63,-2.83 c -0.72,-2.51 -1.34,-2.83 1.37,-4.19 c 0.33,-0.17 0.66,-0.35 0.99,-0.53 c 0.55,-0.3 1.12,-0.33 1.69,-0.08 c 1.11,1.57 2.62,2.41 4.53,2.53 c 2.15,-0.34 10.06,1.55 9.21,-2.42 c -3.23,-4.34 -20.49,1.34 -17.77,-11.26 c 2.4,-6.87 18.64,-6.27 22.89,-1.74 c 0.78,1.78 -2.39,4.41 -3.83,3.86 c -2.54,-2.41 -4.64,-1.07 -7.75,-1.23 Z M 149.37,19.95 c -0.16,0.34 -0.33,0.67 -0.49,1.01 c -0.83,1.22 -1.91,2.12 -3.25,2.69 c -1.1,-0.46 -2.18,-0.98 -3.24,-1.57 c -1.76,0.08 -12.26,-1.76 -10.42,2.28 c 3.25,3.05 13.29,-1.07 16.96,5.68 c 0.61,2.34 0.52,4.66 -0.26,6.94 c -4.3,5.06 -18.48,4.66 -22.96,-0.08 c -2.46,-2.49 3.07,-5.08 4.21,-4.18 c 1.71,2.04 3.91,2.9 6.58,2.58 c 1.68,-0.23 8.34,0.88 7.15,-2.52 c -3.21,-4.58 -17.24,1.49 -18.24,-9.27 c 1,-9.78 18.77,-8.24 23.96,-3.56 Z M 159.06,17.29 c 3.01,-1.02 5.53,-0.32 7.56,2.1 c 0.35,0.32 0.7,0.63 1.05,0.93 c 3.18,3 6.38,5.97 9.59,8.93 c 1.05,0.92 1.66,0.69 1.85,-0.7 c 0.02,-3.61 0.08,-7.22 0.18,-10.83 c 1.19,-1.44 4.04,-0.8 5.64,-0.38 c 0.13,7.43 0.13,14.86 -0.02,22.3 c -2.01,0.7 -3.97,0.6 -5.89,-0.3 c -3.9,-3.69 -7.84,-7.34 -11.8,-10.97 c -0.27,-0.25 -0.55,-0.51 -0.83,-0.76 c -0.95,-0.65 -1.51,-0.39 -1.66,0.8 c -0.36,2.07 0.45,10.03 -0.5,11.32 c -1.73,0.52 -3.45,0.5 -5.16,-0.06 c -0.09,-7.46 -0.09,-14.92 -0.01,-22.38 Z M 187.22,29 c 1.07,-17.34 29.9,-17.1 30.56,-0.5 c -1.56,16.95 -29.51,16.26 -30.56,0.5 Z M 193.24,28.06 c 0.36,10.1 18.6,9.6 18.51,0.44 c -0.79,-9.46 -17.89,-8.96 -18.51,-0.44 Z M 81.86,28.99 c 0.11,2.31 8.05,2.31 5.74,-1.02 c -2.73,-6.25 -3.6,-3.54 -5.74,1.02 Z"/></g><g><path fill="#dadbdb" fill-opacity="0.357" d="M 69.78,36 c 0.64,-0.06 1.28,-0.11 1.92,-0.14 c -0.39,1.51 -0.98,2.94 -1.77,4.29 c -0.99,-0.62 -2.05,-0.73 -3.17,-0.31 c 1.42,-0.97 3.45,-1.67 3.02,-3.84 Z"/></g><g><path fill="#c5c7ca" fill-opacity="0.161" d="M 106.02,22.58 c 1.7,-0.92 3.44,-0.99 5.22,-0.2 c -1.05,0.86 -3.97,0.38 -5.3,0.35 c 0.03,-0.05 0.05,-0.1 0.08,-0.15 Z"/></g><g><path fill="#2973b5" fill-opacity="0.992" d="M 41.37,30.87 c -0.66,0.25 -1.07,0.73 -1.24,1.42 c -4.66,4.4 -9.27,8.86 -13.81,13.4 c -2.45,1.83 -4.69,1.57 -6.73,-0.79 c -4.78,-4.82 -9.51,-9.68 -14.2,-14.58 c -1.52,-3.16 3.1,-6.12 4.84,-8.21 c 0.41,-0.24 0.67,-0.59 0.77,-1.06 c 0.47,-0.15 0.8,-0.45 0.97,-0.91 c 2.95,-2.58 5.76,-5.3 8.44,-8.18 c 2.07,-1.59 4.05,-1.51 5.96,0.24 c 4.67,4.59 9.32,9.2 13.96,13.82 c 1.63,1.35 1.97,2.96 1.04,4.85 Z M 18,35.5 c -0.84,0.81 -0.67,1.25 0.51,1.32 c 0.73,-0.04 1.46,-0.05 2.18,-0.05 c 1.46,1.46 -0.81,3.48 2.81,3.29 c 2.27,-0.07 2.2,-0.72 2.16,-2.78 c 1.39,-1.46 2.75,0.82 3.01,-1.78 c 5.22,-0.94 5.49,-6.6 2.02,-9.83 c -1.96,-1.98 -3.95,-3.94 -5.97,-5.86 c -0.85,-0.94 -1.72,-0.95 -2.59,-0.04 c -3.71,3.59 -13.99,12.33 -4.13,15.73 Z"/></g><g><path fill="#baecfa" d="M 22.11,37.99 c 0.36,-1.46 1.12,-1.78 2.29,-0.94 c 1.55,2.29 -2.05,2.89 -2.29,0.94 Z"/></g><g><path fill="#4e81af" d="M 28.67,35.5 c -0.26,2.6 -1.62,0.32 -3.01,1.78 c 0.04,2.06 0.11,2.71 -2.16,2.78 c -3.62,0.19 -1.35,-1.83 -2.81,-3.29 c -0.72,0 -1.45,0.01 -2.18,0.05 c -1.18,-0.07 -1.35,-0.51 -0.51,-1.32 c 1.87,0.04 3.73,-0.1 5.58,-0.4 c 1.68,0.31 3.38,0.44 5.09,0.4 Z M 22.11,37.99 c 0.24,1.95 3.84,1.35 2.29,-0.94 c -1.17,-0.84 -1.93,-0.52 -2.29,0.94 Z"/></g><g><path fill="#fafcfc" fill-opacity="0.988" d="M 151.11,17.38 c 2.11,-0.56 6.5,-1.61 5.81,2.11 c 0.02,6.61 -0.02,13.22 -0.13,19.83 c -0.8,1.37 -4.37,0.71 -5.64,0.3 c -0.4,-2.02 -0.41,-4.05 -0.02,-6.1 c -0.09,-5.38 -0.1,-10.76 -0.02,-16.14 Z"/></g><g><path fill="#e1e7e6" fill-opacity="0.29" d="M 151.11,17.38 c -0.08,5.38 -0.07,10.76 0.02,16.14 c -0.39,2.05 -0.38,4.08 0.02,6.1 c -1.89,1.03 -0.06,-3 -2.48,-2.64 c 0.78,-2.28 0.87,-4.6 0.26,-6.94 c 1.63,-0.57 1,-4.21 1.17,-5.58 c 0.21,-1.42 -0.2,-2.59 -1.22,-3.5 c 0.16,-0.34 0.33,-0.67 0.49,-1.01 c 0.73,-0.6 0.51,-3.12 1.74,-2.57 Z"/></g><g><path fill="#f5fbfc" d="M 28.67,35.5 c -1.71,0.04 -3.41,-0.09 -5.09,-0.4 c -1.85,0.3 -3.71,0.44 -5.58,0.4 c -9.86,-3.4 0.42,-12.14 4.13,-15.73 c 0.87,-0.91 1.74,-0.9 2.59,0.04 c 2.02,1.92 4.01,3.88 5.97,5.86 c 3.47,3.23 3.2,8.89 -2.02,9.83 Z"/></g><g><path fill="#2b2c2c" fill-opacity="0.031" d="M 148.88,20.96 c 1.02,0.91 1.43,2.08 1.22,3.5 c -0.17,1.37 0.46,5.01 -1.17,5.58 c -3.67,-6.75 -13.71,-2.63 -16.96,-5.68 c -1.84,-4.04 8.66,-2.2 10.42,-2.28 c 1.06,0.59 2.14,1.11 3.24,1.57 c 1.34,-0.57 2.42,-1.47 3.25,-2.69 Z"/></g><g><path fill="#0d3f58" fill-opacity="0.443" d="M 11.97,20.14 c -0.17,0.46 -0.5,0.76 -0.97,0.91 c 0.23,-0.4 0.55,-0.71 0.97,-0.91 Z M 11,21.05 c -0.1,0.47 -0.36,0.82 -0.77,1.06 c 0.09,-0.48 0.34,-0.84 0.77,-1.06 Z"/></g></svg>