<!DOCTYPE svg PUBLIC "-//W3C//DTD SVG 1.1//EN" "http://www.w3.org/Graphics/SVG/1.1/DTD/svg11.dtd"><svg xmlns="http://www.w3.org/2000/svg" version="1.1" style="shape-rendering:geometricPrecision; text-rendering:geometricPrecision; image-rendering:optimizeQuality; fill-rule:evenodd; clip-rule:evenodd" xmlns:xlink="http://www.w3.org/1999/xlink" viewBox="6.2 11.3 98.3 35.3" width="98.3" height="35.3"><g><path fill="#fefefc" fill-opacity="0.965" d="M 90.06,32.12 c 2.01,-1.32 8.89,-0.32 11.54,-0.6 c 0.74,0.04 1.34,0.35 1.8,0.93 c 0.23,2.86 -4.16,0.45 -5.02,2.32 c -0.58,1.7 0.74,10.61 -0.83,11.06 c -3.95,1.4 -2.16,-9.98 -1.96,-12.2 c -0.78,-0.94 -5.72,2.63 -5.53,-1.51 Z"/></g><g><path fill="#f2d020" fill-opacity="0.984" d="M 16.02,11.99 c 1.4,-0.13 2.77,-0.02 4.12,0.33 c 0.59,0.91 2.89,1.48 2.79,2.63 c -0.01,0.73 -0.09,1.45 -0.23,2.17 c -0.26,0.53 -0.68,0.78 -1.28,0.73 c -1.08,-0.4 -2.06,-1 -2.92,-1.79 c -1.94,-0.48 -3.9,-0.81 -5.9,-0.99 c -0.19,-0.35 -0.39,-0.68 -0.61,-1.01 c 1.11,-0.06 2.05,-0.46 2.85,-1.21 c 0.62,0.01 1.01,-0.28 1.18,-0.86 Z"/></g><g><path fill="#d2bd35" fill-opacity="0.259" d="M 66.14,21.88 c 2.75,0.1 5.49,0.19 8.22,0.27 c 1.38,0.64 0.17,4.91 0.75,6.24 c 0.92,0.87 1.84,0.87 2.76,-0.01 c 0.09,-1.9 0.17,-3.79 0.25,-5.68 c 0.55,-0.81 2.33,-0.99 2.76,-0.02 c -4.27,-0.06 0.35,7.65 -3.35,7.37 c -1.19,-0.19 -2.58,0.46 -3.42,-0.67 c -0.61,-1.31 0.65,-5.67 -0.71,-6.26 c -2.47,-0.1 -4.94,-0.14 -7.41,-0.12 c 0.05,-0.37 0.1,-0.75 0.15,-1.12 Z"/></g><g><path fill="#f1f7e7" fill-opacity="0.486" d="M 88.73,31.91 c -4.09,0.1 -8.18,0.14 -12.27,0.13 c -0.54,0.29 -0.77,0.76 -0.69,1.39 c 0.1,3.06 0.11,6.11 0.02,9.17 c -0.52,0.2 -1.04,0.4 -1.57,0.6 c -0.03,-0.95 -0.05,-1.91 -0.06,-2.87 c 2.12,-0.64 -0.5,-7.89 1.48,-9.17 c 4.24,-0.22 8.47,-0.19 12.69,0.08 c 0.3,0.13 0.43,0.35 0.4,0.67 Z"/></g><g><path fill="#d1ba17" fill-opacity="0.553" d="M 65.62,13.01 c -1.2,-0.12 -2.8,-0.29 -2.65,1.46 c 0.01,4.97 0.06,9.93 0.14,14.9 c -0.72,-0.41 -1.08,-1.03 -1.07,-1.87 c -0.07,-4.97 -0.02,-9.94 0.15,-14.91 c 0.43,-0.96 3.9,-0.81 3.43,0.42 Z"/></g><g><path fill="#fafcfb" fill-opacity="0.125" d="M 60.03,32.19 c -0.03,4.54 -0.03,9.07 0.01,13.6 c -0.35,-0.04 -0.7,-0.07 -1.05,-0.11 c -0.25,-1.56 -1.16,-2.09 -2.71,-1.6 c -0.11,-0.4 0.01,-0.72 0.36,-0.95 c 0.82,-0.1 1.57,-0.37 2.24,-0.8 c 0.07,-2.94 0.12,-5.89 0.15,-8.84 c -0.03,-0.75 0.3,-1.18 1,-1.3 Z"/></g><g><path fill="#fcfdfd" fill-opacity="0.808" d="M 56.28,44.08 c 1.55,-0.49 2.46,0.04 2.71,1.6 c -1.4,0.46 -3.79,0.71 -2.71,-1.6 Z"/></g><g><path fill="#d69926" fill-opacity="0.925" d="M 11.99,14.06 c 0.22,0.33 0.42,0.66 0.61,1.01 c -0.11,0.92 -0.63,1.44 -1.54,1.56 c -0.25,-0.22 -0.5,-0.44 -0.75,-0.67 c 0.37,-0.79 0.94,-1.42 1.68,-1.9 Z"/></g><g><path fill="#e4b238" fill-opacity="0.69" d="M 7.69,19.69 c 0.07,1.53 0.11,3.05 0.12,4.58 c -0.29,-0.18 -0.5,-0.44 -0.6,-0.78 c -0.68,-1.41 -0.52,-2.68 0.48,-3.8 Z"/></g><g><path fill="#c3b12e" fill-opacity="0.584" d="M 49.11,13.38 c -1.37,-0.43 -2.76,-0.47 -4.16,-0.13 c 0.08,-0.9 0.59,-1.34 1.52,-1.32 c 1.3,-0.21 2.18,0.27 2.64,1.45 Z"/></g><g><path fill="#e3c333" fill-opacity="0.114" d="M 23.01,28.79 c 1.33,0.2 2.66,0.27 4.01,0.2 c 0.19,1.32 -3.84,1.78 -4.01,-0.2 Z"/></g><g><path fill="#bca745" fill-opacity="0.447" d="M 22.93,14.95 c 1.41,-0.12 1.25,1.86 -0.23,2.17 c 0.14,-0.72 0.22,-1.44 0.23,-2.17 Z"/></g><g><path fill="#a88c23" fill-opacity="0.165" d="M 17.31,22.91 c 0.5,-0.01 0.97,0.09 1.42,0.3 c 0.25,0.81 -1.6,1.14 -1.42,-0.3 Z"/></g><g><path fill="#c5b24c" fill-opacity="0.675" d="M 32.33,12.79 c -0.36,0.62 -0.85,1.11 -1.47,1.48 c 0.16,-0.82 0.65,-1.31 1.47,-1.48 Z"/></g><g><path fill="#c2a645" fill-opacity="0.392" d="M 39.99,19.97 c 0.66,0.19 0.9,0.63 0.73,1.3 c -0.34,-0.38 -0.58,-0.81 -0.73,-1.3 Z"/></g><g><path fill="#d6c859" fill-opacity="0.271" d="M 53.84,19.98 c 0.74,0.08 1.06,0.49 0.97,1.22 c -0.37,-0.37 -0.69,-0.77 -0.97,-1.22 Z"/></g><g><path fill="#decd37" fill-opacity="0.675" d="M 48.96,18.74 c 0.57,0.33 0.83,0.83 0.8,1.49 c -0.55,-0.34 -0.81,-0.84 -0.8,-1.49 Z"/></g><g><path fill="#e6c749" fill-opacity="0.478" d="M 50.91,21.62 c 0.53,0.34 0.92,0.8 1.17,1.38 c -0.69,-0.2 -1.08,-0.66 -1.17,-1.38 Z"/></g><g><path fill="#bc9d29" fill-opacity="0.541" d="M 39.06,18.21 c 0.55,-0.02 0.8,0.25 0.74,0.8 c -0.38,-0.14 -0.63,-0.41 -0.74,-0.8 Z"/></g><g><path fill="#d4c035" fill-opacity="0.608" d="M 84.84,24.18 c 0.68,-0.08 0.98,0.21 0.88,0.86 c -0.34,-0.24 -0.63,-0.52 -0.88,-0.86 Z"/></g><g><path fill="#d2c346" fill-opacity="0.616" d="M 19.96,25.05 c -0.15,0.47 -0.44,0.82 -0.89,1.04 c -0.07,-0.68 0.22,-1.03 0.89,-1.04 Z"/></g><g><path fill="#e8de47" fill-opacity="0.478" d="M 53.92,25.71 c 0.57,0.31 0.96,0.78 1.17,1.4 c -0.77,-0.15 -1.16,-0.62 -1.17,-1.4 Z"/></g><g><path fill="#d2be5f" fill-opacity="0.4" d="M 81.3,25.7 c 0.39,0.37 0.65,0.81 0.8,1.33 c -0.69,-0.18 -0.96,-0.62 -0.8,-1.33 Z"/></g><g><path fill="#ecda64" fill-opacity="0.569" d="M 39.29,26.87 c 0.5,0.33 0.74,0.81 0.73,1.42 c -0.55,-0.3 -0.79,-0.78 -0.73,-1.42 Z"/></g><g><path fill="#d4c043" fill-opacity="0.553" d="M 10.91,27.69 c 0.62,0.35 1.09,0.84 1.42,1.46 c -0.84,-0.12 -1.31,-0.61 -1.42,-1.46 Z"/></g><g><path fill="#dcb845" fill-opacity="0.565" d="M 20.93,27.96 c -0.12,0.71 -0.55,1.08 -1.29,1.09 c 0.31,-0.5 0.74,-0.87 1.29,-1.09 Z"/></g><g><path fill="#e9d05f" fill-opacity="0.275" d="M 28.8,27.74 c 0,0.59 -0.27,0.98 -0.82,1.16 c 0.05,-0.55 0.32,-0.94 0.82,-1.16 Z"/></g><g><path fill="#c2a44a" fill-opacity="0.733" d="M 82.83,28.18 c 0.66,0.03 1.14,0.34 1.41,0.94 c -0.63,-0.09 -1.1,-0.4 -1.41,-0.94 Z"/></g><g><path fill="#b8ac47" fill-opacity="0.588" d="M 37.94,15.98 c 0.6,0.14 0.91,0.53 0.92,1.15 c -0.46,-0.26 -0.76,-0.65 -0.92,-1.15 Z"/></g><g><path fill="#ffe65d" fill-opacity="0.631" d="M 16.02,11.99 c -0.17,0.58 -0.56,0.87 -1.18,0.86 c 0.18,-0.58 0.58,-0.86 1.18,-0.86 Z"/></g><g><path fill="#c7bb31" fill-opacity="0.659" d="M 27.78,20.67 c -0.01,0.54 -0.15,1.04 -0.44,1.5 c -0.09,-0.58 0.06,-1.08 0.44,-1.5 Z"/></g><g><path fill="#f6d30f" fill-opacity="0.98" d="M 55.09,27.11 c -0.21,-0.62 -0.6,-1.09 -1.17,-1.4 c -0.7,-0.85 -1.31,-1.75 -1.84,-2.71 c -0.25,-0.58 -0.64,-1.04 -1.17,-1.38 c -0.39,-0.46 -0.77,-0.92 -1.15,-1.39 c 0.03,-0.66 -0.23,-1.16 -0.8,-1.49 c -1.04,-1.08 -0.84,1.39 -0.93,1.76 c -0.03,2.65 -0.05,5.3 -0.04,7.95 c -0.16,0.15 -0.32,0.3 -0.48,0.45 c -2.02,0.05 -4.04,0.1 -6.05,0.15 c -0.74,0.15 -1.22,-0.1 -1.44,-0.76 c 0.01,-0.61 -0.23,-1.09 -0.73,-1.42 c -1.13,-1.7 -6.89,-0.44 -8.82,-0.87 c -1.02,0.13 -1.57,0.71 -1.67,1.74 c -0.5,0.22 -0.77,0.61 -0.82,1.16 c -0.32,0.03 -0.64,0.06 -0.96,0.09 c -1.35,0.07 -2.68,0 -4.01,-0.2 c -0.57,-0.59 -1.26,-0.87 -2.08,-0.83 c -0.55,0.22 -0.98,0.59 -1.29,1.09 c -2.69,1.42 -4.58,0.28 -7.31,0.1 c -0.33,-0.62 -0.8,-1.11 -1.42,-1.46 c -1.48,0.26 -2.46,-2.4 -3.1,-3.42 c -0.01,-1.53 -0.05,-3.05 -0.12,-4.58 c 0.86,-1.25 1.73,-2.5 2.62,-3.73 c 0.25,0.23 0.5,0.45 0.75,0.67 c -0.19,0.95 -0.45,1.88 -0.78,2.79 c 0.9,5.05 3.08,7.97 8.79,6.67 c 0.45,-0.22 0.74,-0.57 0.89,-1.04 c 1.11,-1.54 0.7,-2.15 -1.23,-1.84 c -0.45,-0.21 -0.92,-0.31 -1.42,-0.3 c -1.32,-2.01 6.77,-3.68 7.53,-1.53 c 0.52,4.13 0.43,4.05 2.5,0.79 c 0.29,-0.46 0.43,-0.96 0.44,-1.5 c 1.01,-2.14 2.03,-4.28 3.08,-6.4 c 0.62,-0.37 1.11,-0.86 1.47,-1.48 c 3.06,-0.94 4.93,0.12 5.61,3.19 c 0.16,0.5 0.46,0.89 0.92,1.15 c 0.06,0.36 0.13,0.72 0.2,1.08 c 0.11,0.39 0.36,0.66 0.74,0.8 c 0.07,0.32 0.13,0.64 0.19,0.96 c 0.15,0.49 0.39,0.92 0.73,1.3 c 0.78,1.94 1.71,3.77 2.8,5.5 c 0.53,-0.99 0.76,-2.08 0.68,-3.25 c -0.01,-3.29 0,-6.58 0.02,-9.87 c 0.12,-0.38 0.36,-0.51 0.73,-0.4 c 1.4,-0.34 2.79,-0.3 4.16,0.13 c 1.8,2.05 3.38,4.25 4.73,6.6 c 0.28,0.45 0.6,0.85 0.97,1.22 c 0.4,0.69 0.93,0.87 1.6,0.55 c 0.04,-3 0,-6.01 -0.12,-9.02 c 0.68,-0.75 3.98,-1.04 3.74,0.75 c -0.01,5.02 -0.01,10.04 0.01,15.06 c -1.44,1.72 -4.28,0.49 -4.95,-1.43 Z M 31.16,22.8 c 6.41,1.28 6.52,0.54 4.14,-4.52 c -1.34,-3.86 -3.83,3.49 -4.14,4.52 Z"/></g><g><path fill="#f1d213" fill-opacity="0.988" d="M 84.84,24.18 c 0.25,0.34 0.54,0.62 0.88,0.86 c 2.48,2.95 10.47,0.07 11.95,1.7 c 0.36,1.82 -0.37,2.66 -2.2,2.53 c -3.75,0.16 -7.49,0.11 -11.23,-0.15 c -0.27,-0.6 -0.75,-0.91 -1.41,-0.94 c -0.33,-0.33 -0.58,-0.71 -0.73,-1.15 c -0.15,-0.52 -0.41,-0.96 -0.8,-1.33 c -0.16,-1 -0.3,-2.01 -0.42,-3.02 c -0.43,-0.97 -2.21,-0.79 -2.76,0.02 c -0.08,1.89 -0.16,3.78 -0.25,5.68 c -0.92,0.88 -1.84,0.88 -2.76,0.01 c -0.58,-1.33 0.63,-5.6 -0.75,-6.24 c -2.73,-0.08 -5.47,-0.17 -8.22,-0.27 c -0.32,-1.02 -0.32,-2.04 0.01,-3.06 c 1.29,0.63 6.93,0.56 8.29,-0.1 c 0.19,-1.74 0.31,-3.5 0.35,-5.28 c 0.01,-0.55 0.27,-0.91 0.78,-1.09 c 4.14,-1.1 2.53,3.88 2.46,6.12 c 0.96,1.08 1.92,1.05 2.87,-0.09 c 0.16,-1.65 0.24,-3.32 0.24,-5 c -0.03,-0.48 0.16,-0.85 0.56,-1.09 c 5.22,0.06 10.43,0.08 15.65,0.06 c 0.83,0.81 0.64,2.89 -0.8,2.92 c -3.76,-0.05 -7.49,0.05 -11.2,0.3 c -0.08,0.95 -0.61,2.56 0.22,3.27 c 3.25,0.29 6.5,0.41 9.77,0.35 c 0.95,0.61 0.74,3.03 -0.83,3.09 c -2.02,0.08 -4.04,0.1 -6.06,0.05 c -2.92,0.06 -3.32,-2.67 -3.61,1.85 Z"/></g><g><path fill="#fcfefc" fill-opacity="0.969" d="M 60.03,32.19 c 1.89,-1.41 9.97,-0.78 12.25,-0.01 c 2.05,1.93 2.16,4 0.36,6.22 c 0.52,0.62 1.03,1.27 1.52,1.93 c 0.01,0.96 0.03,1.92 0.06,2.87 c -1.33,4.61 -10.58,2.35 -14.18,2.59 c -0.04,-4.53 -0.04,-9.06 -0.01,-13.6 Z M 88.73,31.91 c 2.02,4.77 -10.59,-0.35 -10.45,3.58 c -0.17,3.33 7.04,0.52 8.71,2.21 c 2.64,3.64 -7.09,2.2 -8.44,1.78 c -0.78,0.86 0.25,3.39 1.53,3.69 c 2.81,0.18 5.61,0.42 8.39,0.74 c 0.65,0.7 0.62,1.35 -0.1,1.95 c -4.5,0.16 -10.1,1.57 -12.58,-3.26 c 0.09,-3.06 0.08,-6.11 -0.02,-9.17 c -0.08,-0.63 0.15,-1.1 0.69,-1.39 c 4.09,0.01 8.18,-0.03 12.27,-0.13 Z M 62.99,35.01 c -0.88,3.89 5.47,2.48 7.39,1.92 c 3.51,-4 -7.4,-3.86 -7.39,-1.92 Z M 62.95,42 c -0.33,3.91 11.51,1.92 7.45,-1.93 c -1.81,0.01 -8.19,-1.58 -7.45,1.93 Z"/></g><g><path fill="#f9d50a" d="M 65.62,13.01 c 0.29,1.92 0.46,3.86 0.53,5.81 c -0.33,1.02 -0.33,2.04 -0.01,3.06 c -0.05,0.37 -0.1,0.75 -0.15,1.12 c -0.18,1.68 0.49,4.76 -0.59,6.1 c -0.75,0.19 -1.52,0.28 -2.29,0.27 c -0.08,-4.97 -0.13,-9.93 -0.14,-14.9 c -0.15,-1.75 1.45,-1.58 2.65,-1.46 Z M 100.15,13.11 c 1.24,-0.18 2.47,-0.14 3.69,0.1 c 0.14,5.11 0.14,10.21 0.01,15.32 c -0.88,1.34 -4.1,1.32 -3.78,-0.98 c -0.09,-4.82 -0.06,-9.63 0.08,-14.44 Z"/></g><g><path fill="#c7b734" fill-opacity="0.533" d="M 103.84,13.21 c -1.22,-0.24 -2.45,-0.28 -3.69,-0.1 c -0.3,-1.56 4.5,-1.81 3.69,0.1 Z"/></g></svg>