<!DOCTYPE svg PUBLIC "-//W3C//DTD SVG 1.1//EN" "http://www.w3.org/Graphics/SVG/1.1/DTD/svg11.dtd"><svg xmlns="http://www.w3.org/2000/svg" version="1.1" style="shape-rendering:geometricPrecision; text-rendering:geometricPrecision; image-rendering:optimizeQuality; fill-rule:evenodd; clip-rule:evenodd" xmlns:xlink="http://www.w3.org/1999/xlink" viewBox="6 6 149.5 32" width="149.5" height="32"><g><path fill="#65c507" fill-opacity="0.996" stroke="#65c507" stroke-width="0.5" stroke-opacity="0.996" d="M 146.27,13.73 c 3.04,3.04 6.39,5.92 8.73,9.3 c 0,1.65 0,3.29 0,4.94 c -0.6,0.59 -1.23,1.15 -1.88,1.69 c -0.53,0.3 -0.96,0.69 -1.3,1.19 c -0.33,0.33 -0.65,0.66 -0.98,0.98 c -0.45,0.14 -0.77,0.42 -0.96,0.85 c -0.49,0.27 -0.85,0.66 -1.08,1.17 c -0.51,0.16 -0.81,0.51 -0.88,1.05 c -0.48,0.16 -0.84,0.46 -1.09,0.9 c -0.61,0.26 -1.02,0.71 -1.25,1.34 c -0.4,0.03 -0.79,0.02 -1.19,-0.04 c -1.78,-2.9 -4.17,0.36 -4.56,-3.27 c 0.65,-0.01 0.98,-0.34 0.99,-0.99 c 0.58,-0.09 0.91,-0.42 1,-1 c 0.51,-0.17 0.85,-0.51 1.01,-1.02 c 0.46,-0.2 0.79,-0.54 1,-1 c 0.47,-0.21 0.8,-0.55 1,-1.02 c 0.51,-0.16 0.84,-0.49 0.98,-1 c 0.5,-0.17 0.84,-0.5 1.01,-1 c 1.13,-0.75 1.35,-1.69 0.67,-2.83 c -2.34,-2.14 -4.57,-4.37 -6.69,-6.71 c -0.13,-0.56 -0.46,-0.91 -1.01,-1.06 c -0.1,-0.6 -0.44,-0.94 -1.03,-1.01 c 0.78,-1.92 5.78,-1.07 7.51,-1.46 Z"/></g><g><path fill="#ebd6f9" fill-opacity="0.345" d="M 103.12,19.3 c -0.1,5.4 -0.15,10.81 -0.16,16.22 c 0.05,0.68 -0.24,1.08 -0.88,1.2 c -0.08,-5.41 -0.11,-10.83 -0.07,-16.24 c 0,-0.76 0.37,-1.16 1.11,-1.18 Z"/></g><g><path fill="#7da946" fill-opacity="0.827" d="M 146.82,26.8 c -0.17,0.5 -0.51,0.83 -1.01,1 c 0.21,-0.47 0.54,-0.8 1.01,-1 Z M 145.81,27.8 c -0.14,0.51 -0.47,0.84 -0.98,1 c 0.2,-0.47 0.52,-0.8 0.98,-1 Z M 144.83,28.8 c -0.2,0.47 -0.53,0.81 -1,1.02 c 0.18,-0.49 0.51,-0.83 1,-1.02 Z M 143.83,29.82 c -0.21,0.46 -0.54,0.8 -1,1 c 0.18,-0.48 0.52,-0.82 1,-1 Z M 142.83,30.82 c -0.16,0.51 -0.5,0.85 -1.01,1.02 c 0.22,-0.46 0.55,-0.79 1.01,-1.02 Z M 141.82,31.84 c -0.09,0.58 -0.42,0.91 -1,1 c 0.18,-0.48 0.51,-0.82 1,-1 Z M 140.82,32.84 c -0.01,0.65 -0.34,0.98 -0.99,0.99 c 0.33,-0.34 0.66,-0.66 0.99,-0.99 Z M 139.83,33.83 c 0.39,3.63 2.78,0.37 4.56,3.27 c -2.27,-0.16 -4.53,-0.16 -6.78,-0.01 c -0.66,-1.05 1.62,-2.61 2.22,-3.26 Z"/></g><g><path fill="#e4cdf2" fill-opacity="0.882" d="M 115.82,12.84 c 0.07,0.43 -0.08,0.75 -0.47,0.96 c -5.16,0.23 -10.33,0.19 -15.49,-0.11 c 0.81,-0.46 1.69,-0.69 2.63,-0.71 c 4.45,0.07 8.89,0.02 13.33,-0.14 Z"/></g><g><path fill="#7ea64c" fill-opacity="0.812" d="M 146.27,13.73 c -1.73,0.39 -6.73,-0.46 -7.51,1.46 c -0.71,-0.12 -2.07,-1.43 -1.17,-2.06 c 2.31,-0.08 4.63,-0.16 6.96,-0.25 c 0.72,-0.01 1.3,0.27 1.72,0.85 Z M 138.76,15.19 c 0.59,0.07 0.93,0.41 1.03,1.01 c -0.36,-0.33 -0.7,-0.66 -1.03,-1.01 Z M 139.79,16.2 c 0.55,0.15 0.88,0.5 1.01,1.06 c -0.48,-0.22 -0.81,-0.58 -1.01,-1.06 Z"/></g><g><path fill="#9c83b0" fill-opacity="0.2" d="M 17.07,12.88 c -1.76,0.06 -3.52,0.15 -5.29,0.28 c 0.29,-2 5.46,-1.57 5.29,-0.28 Z"/></g><g><path fill="#8b6da4" fill-opacity="0.718" d="M 9.02,13.89 c 0.07,1.05 -0.33,1.87 -1.2,2.46 c -1.27,-0.78 0.17,-2.21 1.2,-2.46 Z"/></g><g><path fill="#749a3c" fill-opacity="0.318" d="M 153.12,29.66 c -0.22,0.64 -0.65,1.04 -1.3,1.19 c 0.34,-0.5 0.77,-0.89 1.3,-1.19 Z"/></g><g><path fill="#7b9c46" fill-opacity="0.302" d="M 150.84,31.83 c 0.03,0.68 -0.29,0.96 -0.96,0.85 c 0.19,-0.43 0.51,-0.71 0.96,-0.85 Z"/></g><g><path fill="#7aa146" fill-opacity="0.286" d="M 149.88,32.68 c -0.08,0.65 -0.44,1.04 -1.08,1.17 c 0.23,-0.51 0.59,-0.9 1.08,-1.17 Z"/></g><g><path fill="#7c9b3e" fill-opacity="0.322" d="M 148.8,33.85 c -0.04,0.56 -0.34,0.91 -0.88,1.05 c 0.07,-0.54 0.37,-0.89 0.88,-1.05 Z"/></g><g><path fill="#84a13f" fill-opacity="0.318" d="M 147.92,34.9 c -0.15,0.55 -0.51,0.85 -1.09,0.9 c 0.25,-0.44 0.61,-0.74 1.09,-0.9 Z"/></g><g><path fill="#798c55" fill-opacity="0.329" d="M 146.83,35.8 c -0.07,0.76 -0.48,1.21 -1.25,1.34 c 0.23,-0.63 0.64,-1.08 1.25,-1.34 Z"/></g><g><path fill="#f6f5f6" fill-opacity="0.992" stroke="#f6f5f6" stroke-width="0.5" stroke-opacity="0.992" d="M 36.97,27.04 c 0.07,1.66 0.07,3.32 0.02,4.97 c -0.53,2.52 -2.03,4.13 -4.51,4.84 c -7.63,0.17 -15.27,0.19 -22.9,0.05 c -1.49,-0.88 -0.71,-3.03 -0.75,-4.43 c 0.06,-0.57 0.33,-0.99 0.84,-1.25 c 6.28,-0.1 12.56,-0.13 18.85,-0.08 c 2.68,0.37 3.08,-2.82 0.96,-3.05 c -5.81,-1.32 -20.46,3.24 -22.37,-4.6 c 0.15,-2.08 -1.19,-5.69 0.71,-7.14 c 0.87,-0.59 1.27,-1.41 1.2,-2.46 c 0.91,-0.29 1.83,-0.54 2.76,-0.73 c 0.17,1.29 5.47,1.46 5.29,-0.28 c 7.82,0.21 15.64,0.29 23.46,0.21 c 0.59,0.02 1.05,-0.22 1.37,-0.7 c 0.29,-5.57 -0.66,-5.83 5.6,-5.37 c 2.75,0.04 0.08,4.77 2.06,5.93 c 2.92,0.21 5.85,0.29 8.79,0.23 c 1.38,0.99 0.59,2.91 0.77,4.36 c 0.06,3.27 -8.52,0.12 -10.01,2.08 c -0.28,3.3 -0.38,6.61 -0.3,9.93 c -0.11,3.74 10.17,-0.58 10.25,2.93 c -0.07,1.35 0.84,4.77 -1.54,4.53 c -10.52,0.17 -16.61,1.67 -15.41,-11.5 c 0.74,-3.16 2.19,-3.96 4.42,-5.9 c -1.27,-0.52 -2.61,-0.72 -4.03,-0.61 c -9.59,-0.03 -19.17,0.06 -28.74,0.29 c -0.5,0.57 -0.66,1.23 -0.47,1.99 c 1.89,3.83 20.56,-3.97 23.68,5.76 Z M 103.12,19.3 c -0.74,0.02 -1.11,0.42 -1.11,1.18 c -0.04,5.41 -0.01,10.83 0.07,16.24 c -1.34,0.09 -6.32,1.28 -6.08,-1.2 c -0.03,-5.58 -2.19,-19.38 3.86,-21.83 c 5.16,0.3 10.33,0.34 15.49,0.11 c 0.39,-0.21 0.54,-0.53 0.47,-0.96 c 0.68,-5.61 -1.32,-6.28 5.69,-5.85 c 2.87,-0.1 0.27,4.68 2.1,5.93 c 2.91,0.23 5.82,0.31 8.74,0.26 c 1.29,0.63 0.68,3.22 0.8,4.36 c 0.13,3.19 -8.21,0.17 -10.05,2.09 c -0.22,3.59 -0.23,7.18 -0.03,10.78 c 1.46,2.17 9.95,-1.13 10.06,2.06 c -0.06,1.37 0.79,4.79 -1.61,4.53 c -10.85,0.16 -17.1,1.46 -15.17,-12.32 c 0.93,-2.61 2.7,-4.35 5.32,-5.22 c -6.14,-0.68 -12.4,-0.65 -18.55,-0.16 Z M 63.06,30 c -0.26,-13.54 19.13,-5.01 21.9,-8.6 c 0.44,-1.4 -0.04,-2.19 -1.45,-2.38 c -5.96,0.08 -11.91,0.02 -17.86,-0.18 c -1.11,-0.82 -0.48,-2.18 -0.65,-3.35 c -0.11,-0.88 0.12,-1.62 0.71,-2.24 c 7.66,-0.03 26,-4.37 26.28,7.25 c -0.01,5 -0.02,10.01 -0.02,15.01 c 0.25,2.44 -4.14,1.22 -5.47,1.45 c -3.08,0.12 -0.04,-7.57 -2.12,-8.83 c -4.58,-0.14 -9.17,-0.14 -13.75,0.02 c -2.03,1.25 1,9 -2.12,8.82 c -1.19,-0.17 -4.66,0.59 -5.32,-0.63 c -0.13,-2.11 -0.17,-4.22 -0.13,-6.34 Z"/></g><g><path fill="#fbeeff" fill-opacity="0.129" d="M 36.97,27.04 c 1.63,-0.52 1.55,5.43 0.02,4.97 c 0.05,-1.65 0.05,-3.31 -0.02,-4.97 Z"/></g><g><path fill="#cdc3d1" fill-opacity="0.988" d="M 11.78,13.16 c 1.77,-0.13 3.53,-0.22 5.29,-0.28 c 0.18,1.74 -5.12,1.57 -5.29,0.28 Z"/></g></svg>